<svg id="bin" xmlns="http://www.w3.org/2000/svg" width="32" height="32" viewBox="0 0 32 32">
  <path id="Path_4117" data-name="Path 4117" d="M26,32H6a6,6,0,0,1-6-6V6A6,6,0,0,1,6,0H26a6,6,0,0,1,6,6V26A6,6,0,0,1,26,32Z" fill="rgba(254,100,111,0.1)"/>
  <path id="Path_4118" data-name="Path 4118" d="M10,14v8.167A1.832,1.832,0,0,0,11.833,24h8.333A1.832,1.832,0,0,0,22,22.167V14Zm4,6.667a.667.667,0,0,1-1.334,0v-4a.667.667,0,0,1,1.334,0Zm2.667,0a.667.667,0,1,1-1.334,0v-4a.667.667,0,0,1,1.334,0Zm2.666,0a.667.667,0,0,1-1.334,0v-4a.667.667,0,0,1,1.335,0v4ZM14,9.333h4V10h1.333V9.333A1.337,1.337,0,0,0,18,8H14a1.337,1.337,0,0,0-1.333,1.333V10H14Z" fill="#fe646f"/>
  <path id="Path_4119" data-name="Path 4119" d="M23.333,11.833V13.5a.5.5,0,0,1-.5.5H9.167a.5.5,0,0,1-.5-.5V11.833A1.832,1.832,0,0,1,10.5,10h11A1.832,1.832,0,0,1,23.333,11.833Z" fill="#fe646f" opacity="0.5"/>
</svg>
