<svg id="editing" xmlns="http://www.w3.org/2000/svg" width="32" height="32" viewBox="0 0 32 32">
  <path id="Path_4113" data-name="Path 4113" d="M26,32H6a6,6,0,0,1-6-6V6A6,6,0,0,1,6,0H26a6,6,0,0,1,6,6V26A6,6,0,0,1,26,32Z" fill="rgba(195,155,50,0.1)"/>
  <path id="Path_4114" data-name="Path 4114" d="M23.5,22.694H14.833a.667.667,0,0,1,0-1.334H23.5a.667.667,0,0,1,0,1.334Z" fill="#c39b32" opacity="0.5"/>
  <path id="Path_4115" data-name="Path 4115" d="M21.678,10.792l-.943-.943a1.364,1.364,0,0,0-1.885,0l-1.379,1.379L20.3,14.056l1.379-1.379a1.331,1.331,0,0,0,0-1.885Z" fill="#c39b32" opacity="0.5"/>
  <path id="Path_4116" data-name="Path 4116" d="M16.529,12.171,9.658,19.042a.332.332,0,0,0-.089.159l-.727,3.084a.334.334,0,0,0,.325.41.329.329,0,0,0,.076-.009l3.084-.727a.327.327,0,0,0,.159-.089L19.357,15Z" fill="#c39b32"/>
</svg>
