<?xml version="1.0" encoding="UTF-8"?>
<svg height="100%" viewBox="0 0 24 24" version="1.1" xmlns="http://www.w3.org/2000/svg" xmlns:xlink="http://www.w3.org/1999/xlink">
    <!-- Generator: sketchtool 49.3 (51167) - http://www.bohemiancoding.com/sketch -->
    <g id="Website" stroke="none" stroke-width="1" fill-rule="evenodd">
        <g id="Website-Desktop-Home-Page" transform="translate(-796.000000, -741.000000)" fill-rule="nonzero">
            <g id="Home-Page" transform="translate(340.000000, 120.000000)">
                <g id="Slider" transform="translate(0.000000, 48.000000)">
                    <g id="Slide-1" transform="translate(20.000000, 128.000000)">
                        <g id="Project-Synopsis" transform="translate(20.000000, 289.000000)">
                            <g id="Quill" transform="translate(20.000000, 68.000000)">
                                <path d="M400,88 L416,88 C418.209139,88 420,89.790861 420,92 L420,108 C420,110.209139 418.209139,112 416,112 L400,112 C397.790861,112 396,110.209139 396,108 L396,92 C396,89.790861 397.790861,88 400,88 Z M409.591927,105.520451 L409.591927,105.481775 C409.591927,104.553531 408.914483,103.83801 407.946705,103.83801 C406.978928,103.83801 406.301484,104.553531 406.301484,105.481775 L406.301484,105.520451 C406.301484,106.448695 406.978928,107.164216 407.946705,107.164216 C408.914483,107.164216 409.591927,106.448695 409.591927,105.520451 Z M407.056157,93.4339472 C406.533751,93.4339472 406.223868,93.8787306 406.281742,94.4395444 L407.114223,101.710785 C407.17229,102.232922 407.52069,102.561675 408.004578,102.561675 C408.488467,102.561675 408.836867,102.232922 408.894933,101.710785 L409.727415,94.4395444 C409.785482,93.8787306 409.4756,93.4339472 408.953194,93.4339472 L407.056157,93.4339472 Z" id="Warning"></path>
                            </g>
                        </g>
                    </g>
                </g>
            </g>
        </g>
    </g>
</svg>
